<svg xmlns="http://www.w3.org/2000/svg" viewBox="0 0 113.935 61.224"><defs><style>.a{fill:#212121;}.b{fill:#14b8f2;}.c{fill:#1e1e1e;}.d{fill:#fff;}</style></defs><title>vslogo</title><path class="a" d="M57.345,36.531l.024.362.163-.362,7.517-14.9h1.611l-8.8,17H56.493l-3.467-17h1.436Z"/><path class="a" d="M66.921,38.632h-1.4L67.726,26h1.389Zm1.191-16.284q.058-.758,1-.957a1.159,1.159,0,0,1,.648.286,1.187,1.187,0,0,1,.251.671,1.32,1.32,0,0,1-.338.648,1.394,1.394,0,0,1-.666.3Q68.065,23.153,68.111,22.348Z"/><path class="a" d="M77.721,27.181a5.232,5.232,0,0,0-.922-.105,4.041,4.041,0,0,0-2.44.811,3.885,3.885,0,0,0-1.483,2.06l-1.494,8.685H70.005L72.2,26h1.366l-.42,2.008a4.958,4.958,0,0,1,1.663-1.7,3.935,3.935,0,0,1,2.142-.56,3.423,3.423,0,0,1,.957.163Z"/><path class="a" d="M83.394,22.768,82.834,26h2.533l-.2,1.144H82.636l-1.4,8.428-.024.724q0,1.273,1.168,1.308a8.287,8.287,0,0,0,1.132-.082l-.058,1.144a4.493,4.493,0,0,1-1.4.175,2.046,2.046,0,0,1-1.786-.858,3.7,3.7,0,0,1-.409-2.422l1.389-8.416H78.982L79.192,26h2.241l.572-3.233Z"/><path class="a" d="M93.775,37.045a4.842,4.842,0,0,1-4.156,1.821,3.107,3.107,0,0,1-2.662-1.29,5.019,5.019,0,0,1-.63-3.485L87.682,26h1.377l-1.342,8.125a6.073,6.073,0,0,0-.012,1.249,2.6,2.6,0,0,0,.642,1.658,2.147,2.147,0,0,0,1.541.618A4.6,4.6,0,0,0,92.479,37a3.24,3.24,0,0,0,1.541-1.85L95.584,26h1.4L94.79,38.632H93.436Z"/><path class="a" d="M105.6,38.632a4.839,4.839,0,0,1-.035-.887l.1-.876a6.552,6.552,0,0,1-2,1.483,5.358,5.358,0,0,1-2.434.514,3.615,3.615,0,0,1-2.6-1.01,3.022,3.022,0,0,1-.893-2.481A3.723,3.723,0,0,1,98.6,33.21a4.925,4.925,0,0,1,2.177-1.424,9.3,9.3,0,0,1,3.163-.508l2.58.012.21-1.447a2.558,2.558,0,0,0-.56-2.078,2.766,2.766,0,0,0-2.066-.829,3.991,3.991,0,0,0-2.4.683,2.993,2.993,0,0,0-1.278,1.862H99.059a3.886,3.886,0,0,1,1.7-2.7,5.73,5.73,0,0,1,3.479-1.021,4.052,4.052,0,0,1,3.006,1.179,3.535,3.535,0,0,1,.858,2.942l-1.051,6.35-.093,1.016a4.8,4.8,0,0,0,.093,1.249l-.023.14Zm-4.132-.981a4.584,4.584,0,0,0,2.457-.614,5.458,5.458,0,0,0,1.943-1.878l.479-2.8-2.23-.012a7.03,7.03,0,0,0-3.467.755,2.692,2.692,0,0,0-1.483,2.158,2.017,2.017,0,0,0,.543,1.7A2.408,2.408,0,0,0,101.464,37.651Z"/><path class="a" d="M110.819,38.632h-1.4l3.117-17.93h1.4Z"/><path class="a" d="M62.6,56.446q.256-1.876-1.938-2.743l-2.019-.736-.677-.292q-3.409-1.552-3.187-4.366a4.566,4.566,0,0,1,.969-2.5,5.512,5.512,0,0,1,2.259-1.675A7.25,7.25,0,0,1,61,43.582a5.975,5.975,0,0,1,2.749.689A4.427,4.427,0,0,1,65.591,46.1a4.978,4.978,0,0,1,.56,2.644l-2.206-.012a3.045,3.045,0,0,0-.7-2.431,3.136,3.136,0,0,0-2.335-.884,4.348,4.348,0,0,0-2.673.748A2.921,2.921,0,0,0,57,48.268q-.234,1.743,2.136,2.643l1.739.62.875.373q3.292,1.518,3.047,4.506a4.5,4.5,0,0,1-.969,2.481,5.417,5.417,0,0,1-2.282,1.617,7.868,7.868,0,0,1-3.1.537,6.477,6.477,0,0,1-2.924-.683,4.771,4.771,0,0,1-2.014-1.838,4.6,4.6,0,0,1-.607-2.65l2.195.012a2.925,2.925,0,0,0,.823,2.428,3.689,3.689,0,0,0,2.621.922,4.665,4.665,0,0,0,2.79-.738A2.877,2.877,0,0,0,62.6,56.446Z"/><path class="a" d="M70.63,54.987l-1.658,1.483-.747,4.343H66.112l3.117-17.93h2.113L69.474,53.6l1.3-1.307,4.482-4.109H78l-5.8,5.382,3.992,7.249H73.875Z"/><path class="a" d="M80.26,60.812h-2.1l2.195-12.63h2.1ZM82,43.57a1.156,1.156,0,0,1,.893.321,1.2,1.2,0,0,1,.356.9A1.246,1.246,0,0,1,82,46.068a1.163,1.163,0,0,1-.9-.315,1.142,1.142,0,0,1-.339-.887,1.325,1.325,0,0,1,.351-.911A1.235,1.235,0,0,1,82,43.57Z"/><path class="a" d="M85.161,60.812h-2.1l3.1-17.93h2.113Z"/><path class="a" d="M89.556,60.812h-2.1l3.1-17.93h2.113Z"/><path class="b" d="M43.556,30.609l-14.62.04L31.6,26.3c.142-.2,9.467-16.393,9.467-16.393l3.162-5.57C45.618,1.888,44.449,0,41.632,0H40.268a9.781,9.781,0,0,0-7.7,4.306L20,25.776a4.9,4.9,0,0,0-.366.734l-4.531,7.8L27.844,61.224,45.107,33.59Z"/><polygon class="c" points="2.214 42.098 0 42.098 5.037 50.923 7.25 50.923 2.214 42.098"/><path class="d" d="M41.374,4.9C42.3,3.25,41.533,1.9,39.664,1.9A6.474,6.474,0,0,0,34.578,4.9c-.928,1.653-.159,3.006,1.71,3.006A6.474,6.474,0,0,0,41.374,4.9Z"/><polygon class="c" points="31.483 9.912 29.249 9.912 5.037 50.923 7.27 50.923 31.483 9.912"/><polygon class="c" points="41.055 9.912 38.822 9.912 24.588 34.597 26.822 34.597 41.055 9.912"/><polygon class="c" points="44.605 32.427 27.844 61.224 30.078 61.224 45.614 34.552 44.605 32.427"/><polygon class="c" points="43.664 30.515 27.976 30.515 27.976 32.459 44.597 32.459 43.664 30.515"/><polygon class="c" points="43.866 35.324 41.888 31.173 43.664 30.515 45.614 34.552 43.866 35.324"/></svg>