<svg xmlns="http://www.w3.org/2000/svg" viewBox="0 0 112.89913 18.92517"><defs><style>.a{fill:#32bbff;}</style></defs><title>4-star</title><polygon class="a" points="9.95 0 13.024 6.23 19.899 7.229 14.924 12.078 16.099 18.925 9.95 15.692 3.8 18.925 4.975 12.078 0 7.229 6.875 6.23 9.95 0"/><polygon class="a" points="33.2 0 36.274 6.23 43.149 7.229 38.174 12.078 39.349 18.925 33.2 15.692 27.05 18.925 28.225 12.078 23.25 7.229 30.125 6.23 33.2 0"/><polygon class="a" points="56.45 0 59.524 6.23 66.399 7.229 61.424 12.078 62.599 18.925 56.45 15.692 50.3 18.925 51.475 12.078 46.5 7.229 53.375 6.23 56.45 0"/><polygon class="a" points="79.7 0 82.774 6.23 89.649 7.229 84.674 12.078 85.849 18.925 79.7 15.692 73.55 18.925 74.725 12.078 69.75 7.229 76.625 6.23 79.7 0"/><path class="a" d="M102.94954,2.25955l2.17786,4.41281a.99992.99992,0,0,0,.75293.547l4.86975.70764-3.5238,3.43484a.99989.99989,0,0,0-.2876.88516l.83191,4.8501-4.35571-2.28992a1,1,0,0,0-.93066,0L98.1285,17.09714l.83191-4.8501a.99989.99989,0,0,0-.2876-.88516L95.149,7.927l4.86975-.70764a.99992.99992,0,0,0,.75293-.547l2.17786-4.41281m0-2.25955L99.875,6.2298,93,7.22879,97.97481,12.078l-1.17444,6.8472,6.14917-3.23282,6.14917,3.23282-1.17444-6.8472,4.97485-4.84918-6.875-.999L102.94954,0Z"/></svg>