<svg xmlns="http://www.w3.org/2000/svg" viewBox="0 0 52 52"><defs><style>.a{fill:#14b8f2;}.b{fill:#fff;}</style></defs><title>Recurso 27</title><rect class="a" width="52" height="52"/><path class="b" d="M30.08479,13.98726A9.11278,9.11278,0,0,0,18.77908,27.7091a.50431.50431,0,0,0,.796-.61944A8.10425,8.10425,0,0,1,29.63,14.88739a.50424.50424,0,1,0,.45475-.90013Z"/><path class="b" d="M34.11174,18.015a.50434.50434,0,0,0-.90038.45469A8.10421,8.10421,0,0,1,21.00834,28.523a.50427.50427,0,1,0-.61938.79594A9.11281,9.11281,0,0,0,34.11174,18.015Z"/><path class="b" d="M32.8088,16.09427c-.12494-.14138-.25619-.281-.39013-.41488s-.2735-.26519-.41488-.39013a.5043.5043,0,0,0-.668.75569c.12594.11125.25031.22825.36969.34756s.23625.24369.34756.36963a.50429.50429,0,0,0,.75575-.66788Z"/><path class="b" d="M37.87918,23.02566a1.71131,1.71131,0,0,0-.00013-1.7885l-.66344-1.08794a.70988.70988,0,0,1-.09506-.47938l.19775-1.25644a1.71056,1.71056,0,0,0-.68638-1.65619l-1.02819-.74788a.71006.71006,0,0,1-.27213-.40663l-.29944-1.23744a1.71082,1.71082,0,0,0-1.26544-1.26556l-1.2375-.2995a.70966.70966,0,0,1-.40663-.27213l-.748-1.02844a1.71028,1.71028,0,0,0-1.656-.68644l-1.25688.19775a.70992.70992,0,0,1-.47931-.09506l-1.08813-.66363a1.71118,1.71118,0,0,0-1.7885,0l-1.088.66344a.70988.70988,0,0,1-.47938.09506L22.2819,10.813a1.71062,1.71062,0,0,0-1.65606.68644L19.878,12.52764a.71015.71015,0,0,1-.40675.27213l-1.23744.29944a1.711,1.711,0,0,0-1.26556,1.26544l-.2995,1.2375a.70936.70936,0,0,1-.27213.40663l-1.02844.748a1.71044,1.71044,0,0,0-.68644,1.656l.19775,1.25694a.70985.70985,0,0,1-.09506.47931l-.66356,1.08819a1.71134,1.71134,0,0,0,.00006,1.78844l.66344,1.088a.70988.70988,0,0,1,.09506.47938l-.19775,1.2565a1.71046,1.71046,0,0,0,.68638,1.65613l1.02819.74788a.70966.70966,0,0,1,.27213.40663l.29944,1.23744a1.71081,1.71081,0,0,0,1.26544,1.26556l.51675.12506-3.49713,7.80089a.50429.50429,0,0,0,.52.707l2.81388-.33644,1.621,2.32444a.5044.5044,0,0,0,.4135.21581c.01569,0,.03156-.00075.04731-.00219a.50449.50449,0,0,0,.413-.29575l3.57157-7.96745.45256.27594a1.71122,1.71122,0,0,0,1.7885,0l.46888-.28588L30.93911,41.702a.50416.50416,0,0,0,.413.29575c.01581.0015.03163.00225.04731.00225a.50431.50431,0,0,0,.4135-.21581l1.621-2.32444,2.81388.33644a.50429.50429,0,0,0,.52-.707L33.26886,31.284l.49731-.12031a1.711,1.711,0,0,0,1.26556-1.26544l.2995-1.2375a.70966.70966,0,0,1,.27213-.40663l1.02844-.748a1.71045,1.71045,0,0,0,.68644-1.656l-.19775-1.25694a.70985.70985,0,0,1,.09506-.47931ZM20.52553,40.47675,19.2409,38.63462a.504.504,0,0,0-.4735-.21225l-2.22994.26662,3.18619-7.1077a.70525.70525,0,0,1,.15356.15344l.748,1.02844a1.73337,1.73337,0,0,0,.238.26513l-1.67707,3.74107a.50425.50425,0,1,0,.92025.41256l1.67113-3.72776a1.726,1.726,0,0,0,.50369-.00456l1.25688-.19775a.708.708,0,0,1,.22538.0015ZM35.4833,38.68887l-2.23-.2665a.504.504,0,0,0-.4735.21225l-1.28463,1.84213-3.23932-7.2262a.70992.70992,0,0,1,.20581.0015l1.25644.19775a1.72713,1.72713,0,0,0,.52369.0015l1.67238,3.73076a.50425.50425,0,1,0,.92025-.41256L31.151,33.01417a1.73565,1.73565,0,0,0,.22319-.25081l.74788-1.02819a.708.708,0,0,1,.16975-.16531ZM37.018,22.50053l-.66356,1.08819a1.72,1.72,0,0,0-.23025,1.16113l.19775,1.25688a.70624.70624,0,0,1-.28338.68363l-1.0285.74806a1.71962,1.71962,0,0,0-.65906.985l-.2995,1.2375a.70642.70642,0,0,1-.52244.52244l-1.2375.29944a1.71951,1.71951,0,0,0-.98513.65913l-.74788,1.02819a.70582.70582,0,0,1-.68369.28331l-1.2565-.19775a1.71985,1.71985,0,0,0-1.16131.23025l-1.08794.66344a.7067.7067,0,0,1-.73825,0l-1.08819-.6635a1.719,1.719,0,0,0-1.16119-.23025l-1.25694.19775A.70607.70607,0,0,1,21.4409,32.17l-.74806-1.02844a1.71963,1.71963,0,0,0-.985-.65906l-1.2375-.2995a.70641.70641,0,0,1-.52244-.52244l-.29944-1.23744a1.71936,1.71936,0,0,0-.65913-.98519L15.96121,26.69a.70606.70606,0,0,1-.28331-.68369l.19775-1.2565a1.71967,1.71967,0,0,0-.23025-1.16125L14.982,22.50046a.70643.70643,0,0,1,0-.73825l.66356-1.08819a1.71968,1.71968,0,0,0,.23025-1.16113L15.678,18.256a.70624.70624,0,0,1,.28338-.68363l1.0285-.74806a1.71962,1.71962,0,0,0,.65906-.985l.2995-1.2375a.70641.70641,0,0,1,.52244-.52244l1.2375-.29944a1.71917,1.71917,0,0,0,.98506-.65913l.74788-1.02819a.70587.70587,0,0,1,.68369-.28338l1.2565.19775a1.719,1.719,0,0,0,1.16131-.23025l1.08794-.66344a.7067.7067,0,0,1,.73825,0l1.08819.6635a1.7189,1.7189,0,0,0,1.16119.23031l1.25694-.19775a.70654.70654,0,0,1,.68363.28338L31.307,13.1212a1.71962,1.71962,0,0,0,.985.65906l1.2375.2995a.70641.70641,0,0,1,.52244.52244l.29944,1.23744a1.71937,1.71937,0,0,0,.65913.98519l1.02819.74788a.70605.70605,0,0,1,.28331.68369l-.19775,1.2565a1.71968,1.71968,0,0,0,.23025,1.16125l.66344,1.08806A.70627.70627,0,0,1,37.018,22.50053Z"/><path class="b" d="M31.901,20.56234a.90221.90221,0,0,0-.75931-.62338l-3.03444-.35981-1.27988-2.77469a.91131.91131,0,0,0-1.655,0l-1.27988,2.77475-3.03444.35981a.91124.91124,0,0,0-.51144,1.57382l2.24344,2.07469-.5955,2.99713a.91428.91428,0,0,0,.89263,1.09044.9118.9118,0,0,0,.44625-.11775l2.66638-1.49244,2.66638,1.49244a.91122.91122,0,0,0,1.33888-.97269l-.5955-2.99707L31.653,21.5129A.9022.9022,0,0,0,31.901,20.56234Zm-3.38338,2.47644a.50444.50444,0,0,0-.15225.4685l.60938,3.06694-2.72863-1.52731a.50426.50426,0,0,0-.49263,0l-2.72863,1.52731.60938-3.06694a.50393.50393,0,0,0-.15225-.4685l-2.29576-2.12313,3.10538-.36819a.50446.50446,0,0,0,.39856-.2895l1.30969-2.83944L27.3096,20.258a.50436.50436,0,0,0,.39856.2895l3.10525.36819Z"/></svg>