<svg xmlns="http://www.w3.org/2000/svg" viewBox="0 0 12.8 8"><defs><style>.a{fill:#686868;}</style></defs><title>eye</title><path class="a" d="M6.4,0A7.16826,7.16826,0,0,0,0,4,7.12,7.12,0,0,0,12.8,4,7.16834,7.16834,0,0,0,6.4,0ZM9.55563,2.1213A6.08646,6.08646,0,0,1,11.4236,4a6.08674,6.08674,0,0,1-1.868,1.8787,5.865,5.865,0,0,1-6.31125,0A6.08738,6.08738,0,0,1,1.37645,4,6.086,6.086,0,0,1,3.24437,2.1213c.049-.03125.09845-.06152.14823-.09125a3.2,3.2,0,1,0,6.01483,0Q9.482,2.07461,9.55563,2.1213ZM5.8,2.425a.9.9,0,1,1-.9-.9A.9.9,0,0,1,5.8,2.425Z"/></svg>