<svg xmlns="http://www.w3.org/2000/svg" viewBox="0 0 20.00601 20.00635"><defs><style>.a{fill:#424242;}</style></defs><title>gear</title><path class="a" d="M18.707,7.6123l-1.127-.19189a8.24042,8.24042,0,0,0-.3916-.94678l.66406-.92969a1.55555,1.55555,0,0,0-.16895-2.01465L16.48535,2.33057a1.59354,1.59354,0,0,0-2.01172-.16943L13.54,2.82568a8.04666,8.04666,0,0,0-.99512-.41016L12.3584,1.30664A1.56254,1.56254,0,0,0,10.81348,0H9.12012A1.56257,1.56257,0,0,0,7.5752,1.30566l-.19531,1.145a7.80225,7.80225,0,0,0-.94336.39795L5.5166,2.186A1.59508,1.59508,0,0,0,3.501,2.354L2.29688,3.55322a1.56149,1.56149,0,0,0-.168,2.01514l.67285.94629a7.933,7.933,0,0,0-.38574.95068l-1.11035.187A1.56086,1.56086,0,0,0,0,9.19678v1.69336a1.56086,1.56086,0,0,0,1.30566,1.54443l1.14453.19482a7.91707,7.91707,0,0,0,.39746.94434l-.65918.9165a1.55536,1.55536,0,0,0,.16992,2.01514l1.19824,1.19824a1.5895,1.5895,0,0,0,2.01172.16943l.94531-.67334a8.0233,8.0233,0,0,0,.90625.37207l.1875,1.12793a1.56254,1.56254,0,0,0,1.54492,1.30664h1.69727a1.56255,1.56255,0,0,0,1.54492-1.30615l.19043-1.12793a8.07673,8.07673,0,0,0,.94727-.3916l.92773.66357a1.599,1.599,0,0,0,2.01758-.16846l1.19824-1.19873a1.56339,1.56339,0,0,0,.16895-2.01562l-.665-.93311a7.98411,7.98411,0,0,0,.39258-.94629l1.127-.188a1.56121,1.56121,0,0,0,1.30664-1.54395v-1.689A1.543,1.543,0,0,0,18.707,7.6123Zm-2.73047,3.92822a6.0195,6.0195,0,0,1-.65918,1.58838.92489.92489,0,0,0,.041.99951l.8623,1.21387-.87793.87891-1.209-.86084a.92126.92126,0,0,0-1.002-.042,6.06035,6.06035,0,0,1-1.585.65869.9035.9035,0,0,0-.67773.73584l-.24707,1.46533H9.38379l-.24414-1.46533a.915.915,0,0,0-.6748-.73486,6.30591,6.30591,0,0,1-1.55664-.63916.94555.94555,0,0,0-.99121.04834l-1.22168.87061-.87793-.87842.8584-1.20361a.93018.93018,0,0,0,.03906-1.00537,5.97391,5.97391,0,0,1-.668-1.5874.93.93,0,0,0-.7334-.66846l-1.47754-.25146V9.42383l1.45313-.24365a.9197.9197,0,0,0,.73926-.68066,6.031,6.031,0,0,1,.64746-1.58984.91429.91429,0,0,0-.04492-.99561L3.76074,4.69141l.87793-.87793,1.20313.85791a.92983.92983,0,0,0,1.00586.03955,5.97676,5.97676,0,0,1,1.58594-.66748.92817.92817,0,0,0,.66992-.7334l.251-1.478h1.23926l.24316,1.4541a.91986.91986,0,0,0,.68066.73926,6.15731,6.15731,0,0,1,1.62793.668.92528.92528,0,0,0,1-.04346l1.20117-.86475.87793.87793-.85937,1.2085a.91822.91822,0,0,0-.043,1.00293,6.075,6.075,0,0,1,.6582,1.584.90241.90241,0,0,0,.73535.67725l1.46582.248-.00391,1.23828-1.4668.24414A.91986.91986,0,0,0,15.97656,11.54053Z"/><path class="a" d="M10.00488,5.4707A4.53027,4.53027,0,1,0,14.53516,10.001,4.53535,4.53535,0,0,0,10.00488,5.4707ZM12.69922,10.001a2.69434,2.69434,0,1,1-2.69434-2.69434A2.69747,2.69747,0,0,1,12.69922,10.001Z"/></svg>