<svg xmlns="http://www.w3.org/2000/svg" viewBox="0 0 16.66224 16.66113"><defs><style>.a{fill:#fff;}</style></defs><title>gear-white</title><path class="a" d="M15.626,6.3877l-.98437-.16748a6.75117,6.75117,0,0,0-.35547-.85791l.58105-.81152a1.2429,1.2429,0,0,0-.13574-1.60791L13.72559,1.936a1.27365,1.27365,0,0,0-1.60547-.13428l-.81445.58008a6.6438,6.6438,0,0,0-.89844-.37012l-.16406-.96924A1.24458,1.24458,0,0,0,9.01172,0H7.58984A1.24459,1.24459,0,0,0,6.3584,1.042l-.1709.99854a6.43762,6.43762,0,0,0-.85547.36084L4.5293,1.82275a1.27312,1.27312,0,0,0-1.60937.13379L1.91016,2.96289a1.2476,1.2476,0,0,0-.13574,1.6084l.58887.82568a6.5118,6.5118,0,0,0-.35059.86084L1.043,6.42139A1.24595,1.24595,0,0,0,0,7.65381V9.0752a1.246,1.246,0,0,0,1.042,1.23242l1,.17041a6.49522,6.49522,0,0,0,.35938.855l-.57617.80078a1.24366,1.24366,0,0,0,.13574,1.6084L2.9668,14.74854a1.26908,1.26908,0,0,0,1.60547.13428l.82422-.5874a6.60278,6.60278,0,0,0,.82422.33838l.16406.98486a1.24483,1.24483,0,0,0,1.23242,1.04248H9.042a1.24459,1.24459,0,0,0,1.23145-1.042l.167-.98486a6.63436,6.63436,0,0,0,.8584-.355l.81055.57959a1.27357,1.27357,0,0,0,1.60938-.13428l1.00586-1.00635a1.24444,1.24444,0,0,0,.13477-1.60791l-.58008-.81494a6.62418,6.62418,0,0,0,.35645-.85791l.9834-.16406a1.24595,1.24595,0,0,0,1.043-1.23242V7.62354A1.23118,1.23118,0,0,0,15.626,6.3877Zm-2.21777,3.249a5.17611,5.17611,0,0,1-.56152,1.35107.71306.71306,0,0,0,.03223.76709l.75488,1.06348-.81445.81494-1.05859-.75342a.70481.70481,0,0,0-.77051-.03271,5.13085,5.13085,0,0,1-1.34766.55957.69423.69423,0,0,0-.51953.56592l-.2168,1.28369H7.75684L7.542,13.97217a.704.704,0,0,0-.51758-.56494,5.343,5.343,0,0,1-1.32227-.542.72378.72378,0,0,0-.76172.03711l-1.07031.76221-.81543-.81445.752-1.05518a.714.714,0,0,0,.03027-.77246,5.04975,5.04975,0,0,1-.56641-1.34912.71751.71751,0,0,0-.56445-.51416L1.41211,8.939V7.79l1.27344-.21387a.70561.70561,0,0,0,.56836-.52344,5.1328,5.1328,0,0,1,.55078-1.35156A.70209.70209,0,0,0,3.76953,4.936L3.00781,3.86572l.81445-.81445L4.877,3.80371a.71206.71206,0,0,0,.77246.02979A5.08806,5.08806,0,0,1,6.998,3.26611a.71362.71362,0,0,0,.51367-.564l.2207-1.29395H8.88184L9.0957,2.68213a.70552.70552,0,0,0,.52344.56885,5.228,5.228,0,0,1,1.38281.56738.71222.71222,0,0,0,.76758-.0332l1.05371-.7583.81445.81494-.75488,1.05957a.7033.7033,0,0,0-.03125.76953,5.20026,5.20026,0,0,1,.55957,1.34766.69289.69289,0,0,0,.56445.52051l1.28516.21729-.00391,1.14844-1.28418.21387A.704.704,0,0,0,13.4082,9.63672Z"/><path class="a" d="M8.333,4.59131a3.73755,3.73755,0,1,0,3.7373,3.73779A3.74212,3.74212,0,0,0,8.333,4.59131ZM10.6582,8.3291A2.32568,2.32568,0,1,1,8.333,6.00293,2.32811,2.32811,0,0,1,10.6582,8.3291Z"/></svg>