<svg xmlns="http://www.w3.org/2000/svg" viewBox="0 0 22 20.68115"><defs><style>.a{fill:#fff;}</style></defs><title>shop-white</title><path class="a" d="M10.25706,20.68115A2.05033,2.05033,0,0,1,8.2146,18.57531a1.99542,1.99542,0,0,1,2.04246-2.03658,2.04784,2.04784,0,0,1,2.10034,2.03658A2.10307,2.10307,0,0,1,10.25706,20.68115Z"/><path class="a" d="M20.29965,12.84043a5.73557,5.73557,0,0,1-.517,1.93,1.11988,1.11988,0,0,1-.91309.43013H7.04982a1.37705,1.37705,0,0,1-1.38045-1.3764c0-.494-1.41493-7.50769-1.94934-10.1403A1.30215,1.30215,0,0,0,2.50946,2.6853L1.38475,2.67452A1.29067,1.29067,0,0,1,.00284,1.23918,1.31166,1.31166,0,0,1,.41829.25208c.42791-.35689,1.39383-.23,1.93787-.23089L3.34044.01935a2.50668,2.50668,0,0,1,2.62367,1.753c.17676.52883.26721,1.43236.38609,1.97687L8.04013,11.458a1.31058,1.31058,0,0,0,1.22487.98572h7.73147a1.295,1.295,0,0,0,1.21615-.987l1.262-6.00055A1.661,1.661,0,0,1,20.16929,4.271a1.48942,1.48942,0,0,1,1.71379.64642A4.50111,4.50111,0,0,1,21.83759,7.01S20.84828,10.53986,20.29965,12.84043Z"/><path class="a" d="M17.15487,20.68115a2.049,2.049,0,0,1-2.03742-2.10584,1.994,1.994,0,0,1,2.03742-2.03658,2.05132,2.05132,0,0,1,2.10439,2.03658A2.10589,2.10589,0,0,1,17.15487,20.68115Z"/><path class="a" d="M10.32778,11.06364a.69091.69091,0,1,1,.69045-.69137A.69091.69091,0,0,1,10.32778,11.06364Z"/><path class="a" d="M13.0896,11.06364a.69091.69091,0,1,1,.69045-.69137A.6909.6909,0,0,1,13.0896,11.06364Z"/><path class="a" d="M15.85065,11.06364a.69091.69091,0,1,1,.69-.69137A.691.691,0,0,1,15.85065,11.06364Z"/><path class="a" d="M8.94679,8.30175a.69023.69023,0,1,1,.69137-.68969A.691.691,0,0,1,8.94679,8.30175Z"/><path class="a" d="M11.70869,6.92183a.69023.69023,0,1,1-.69045.69022A.69023.69023,0,0,1,11.70869,6.92183Z"/><path class="a" d="M14.47012,6.92183a.69023.69023,0,1,1-.69045.69022A.69023.69023,0,0,1,14.47012,6.92183Z"/><path class="a" d="M17.2311,6.92183a.69023.69023,0,1,1-.69045.69022A.69021.69021,0,0,1,17.2311,6.92183Z"/><path class="a" d="M15.85065,5.54131a.69011.69011,0,1,1,.69-.68977A.69067.69067,0,0,1,15.85065,5.54131Z"/><path class="a" d="M13.0896,5.54131a.69011.69011,0,1,1,.69045-.68977A.69056.69056,0,0,1,13.0896,5.54131Z"/><path class="a" d="M10.32778,5.54131a.69011.69011,0,1,1,.69045-.68977A.69057.69057,0,0,1,10.32778,5.54131Z"/></svg>