<svg xmlns="http://www.w3.org/2000/svg" viewBox="0 0 25 47"><defs><style>.a{fill:#00000069;}.b{fill:#fdffff;}</style></defs><title>slider-arrow-prev</title><path class="a" d="M22,47a2.98945,2.98945,0,0,1-2.12109-.87891l-19-19a2.99891,2.99891,0,0,1,0-4.24219l19-19a2.99968,2.99968,0,0,1,4.24219,4.24219L7.24268,25,24.12109,41.87891A3,3,0,0,1,22,47Z"/><path class="b" d="M22,44a2.98945,2.98945,0,0,1-2.12109-.87891l-19-19a2.99891,2.99891,0,0,1,0-4.24219l19-19a2.99968,2.99968,0,0,1,4.24219,4.24219L7.24268,22,24.12109,38.87891A3,3,0,0,1,22,44Z"/></svg>