<svg xmlns="http://www.w3.org/2000/svg" viewBox="0 0 25 47"><defs><style>.a{fill:#4c4c4c;}.b{fill:#fdffff;}</style></defs><title>slider-arrow</title><path class="a" d="M3,47A3,3,0,0,1,.87891,41.87891L17.75781,25,.87891,8.12109A2.99968,2.99968,0,0,1,5.12109,3.87891l19,19a2.99891,2.99891,0,0,1,0,4.24219l-19,19A2.99028,2.99028,0,0,1,3,47Z"/><path class="b" d="M3,44A3,3,0,0,1,.87891,38.87891L17.75781,22,.87891,5.12109A2.99968,2.99968,0,0,1,5.12109.87891l19,19a2.99891,2.99891,0,0,1,0,4.24219l-19,19A2.99028,2.99028,0,0,1,3,44Z"/></svg>