<svg xmlns="http://www.w3.org/2000/svg" viewBox="0 0 39.5 39.5"><defs><style>.a{fill:#14b8f2;}.b{fill:#fff;}</style></defs><title>special-clas</title><rect class="a" width="39.5" height="39.5"/><path class="b" d="M28.94242,10.55758A13.00016,13.00016,0,1,0,32.75,19.75,12.91525,12.91525,0,0,0,28.94242,10.55758ZM19.75,31.98828A12.23828,12.23828,0,1,1,31.98828,19.75,12.25213,12.25213,0,0,1,19.75,31.98828Z"/><path class="b" d="M27.35139,12.14861a10.74956,10.74956,0,0,0-14.663-.50363.35673.35673,0,1,0,.46891.53774,10.037,10.037,0,1,1-.97459.97459.35674.35674,0,0,0-.53779-.46886,10.74986,10.74986,0,1,0,15.70646-.53983Z"/><path class="b" d="M27.68113,19.41988l-7.41406-4.26562a.38087.38087,0,0,0-.57078.33013v2.83288l-5.49758-3.163a.38087.38087,0,0,0-.57078.33013v8.53125a.38087.38087,0,0,0,.57078.33013l5.49758-3.163v2.83288a.38086.38086,0,0,0,.57078.33013l3.04682-1.753a.38086.38086,0,0,0-.37984-.66026L20.458,23.3571V20.52422a.38087.38087,0,0,0-.57078-.33013l-5.49758,3.163V16.14292l5.49758,3.163a.38087.38087,0,0,0,.57078-.33013V16.14292L26.72746,19.75l-2.473,1.42284a.38086.38086,0,1,0,.37984.66026l3.04682-1.753a.38086.38086,0,0,0,0-.66026Z"/></svg>