<svg xmlns="http://www.w3.org/2000/svg" viewBox="0 0 19.89917 18.92516"><defs><style>.a{fill:#32bbff;}</style></defs><title>star-empty</title><path class="a" d="M9.94958,2.25957l2.17786,4.41277a1,1,0,0,0,.75293.547l4.86975.70763-3.5238,3.43488a.99983.99983,0,0,0-.2876.88513l.83191,4.85013-4.35571-2.28992a1,1,0,0,0-.93066,0L5.12854,17.09714,5.96045,12.247a.99983.99983,0,0,0-.2876-.88513L2.149,7.927,7.0188,7.21938a1,1,0,0,0,.75293-.547L9.94958,2.25957M9.94958,0,6.875,6.22977,0,7.22876,4.97485,12.078l-1.17444,6.8472,6.14917-3.2328,6.14917,3.2328L14.92432,12.078l4.97485-4.8492-6.875-.999L9.94958,0Z"/></svg>