<svg xmlns="http://www.w3.org/2000/svg" viewBox="0 0 23 23"><defs><style>.a{fill:#32bbff;}.b{fill:#fff;}</style></defs><title>thumb-up</title><circle class="a" cx="11.5" cy="11.5" r="11.5"/><path class="b" d="M6.77783,16.97266h-1.25a.91763.91763,0,0,1-.9165-.917v-7.5a.91763.91763,0,0,1,.9165-.917h2.5a.91678.91678,0,0,1,.80078.47168q.25708-.26074.47949-.48535c1.34863-1.36426,1.71143-1.73047,1.90234-2.61035a1.73074,1.73074,0,0,1,1.73389-1.542h.02344a1.76745,1.76745,0,0,1,1.72656,1.77051,7.51854,7.51854,0,0,1-.39893,2.39551h2.34326a1.75614,1.75614,0,0,1,1.75,1.7373v.0127a1.73592,1.73592,0,0,1-.48242,1.2041,1.71651,1.71651,0,0,1,.06592.50977,1.73441,1.73441,0,0,1-.48242,1.15625,1.721,1.721,0,0,1-.416,1.666,1.71011,1.71011,0,0,1,.06543.458,1.75524,1.75524,0,0,1-.51074,1.24023,1.73108,1.73108,0,0,1-1.23975.51563H8.94043a.91894.91894,0,0,1-.72754.81445l-.1084.01563Zm-1.1665-1h2.333v-.834h7.44434a.744.744,0,0,0,.53076-.21973.73306.73306,0,0,0,.11768-.89648l-.23437-.41309.40137-.25488a.73263.73263,0,0,0,.24951-.998l-.23437-.41406.40137-.25488a.73131.73131,0,0,0,.24951-.998l-.23535-.415.40332-.25488a.74279.74279,0,0,0,.35059-.63086V9.37988a.75327.75327,0,0,0-.75049-.74121H12.91211l.21924-.6582a7.85191,7.85191,0,0,0,.563-2.7373.76292.76292,0,0,0-.73975-.77051h-.01025a.74931.74931,0,0,0-.74658.6875c-.2627,1.23145-.78467,1.75879-2.17871,3.168-.2832.28613-.606.6123-.9751.99316l-.14746.15137H7.94434v-.834h-2.333Z"/></svg>