<svg xmlns="http://www.w3.org/2000/svg" viewBox="0 0 23 23"><defs><style>.a{fill:#32bbff;}.b{fill:#fff;}</style></defs><title>thumb-down</title><circle class="a" cx="11.5" cy="11.5" r="11.5"/><path class="b" d="M10.05534,18.25H10.0319a1.76745,1.76745,0,0,1-1.72656-1.77051A7.50613,7.50613,0,0,1,8.70475,14.083H6.361a1.75487,1.75487,0,0,1-1.74951-1.73633L4.611,12.332a1.73733,1.73733,0,0,1,.48242-1.20215,1.72108,1.72108,0,0,1,.417-1.667,1.71651,1.71651,0,0,1-.06592-.50977,1.73441,1.73441,0,0,1,.48242-1.15625,1.72763,1.72763,0,0,1-.06592-.458A1.75128,1.75128,0,0,1,7.61051,5.583h6.44873a.92094.92094,0,0,1,.72852-.81445l.10645-.01562L17.47233,4.75a.91763.91763,0,0,1,.9165.917v7.5a.91743.91743,0,0,1-.9165.916h-2.5a.91924.91924,0,0,1-.80127-.4707c-.16992.17285-.32812.333-.47607.48242-1.35107,1.36523-1.71436,1.73242-1.90527,2.6123A1.73091,1.73091,0,0,1,10.05534,18.25ZM5.611,12.334a.76023.76023,0,0,0,.75.749h3.72705l-.21973.6582a7.86833,7.86833,0,0,0-.563,2.73828.76292.76292,0,0,0,.73975.77051.7795.7795,0,0,0,.75732-.68848c.26318-1.23145.78564-1.75879,2.18213-3.1709.28223-.28516.604-.61035.97168-.98926l.14746-.15137h.95166v.833h2.3335V5.75h-2.3335v.833H7.611a.751.751,0,0,0-.75.749.75357.75357,0,0,0,.10205.36816l.23438.41309-.40137.25488a.73018.73018,0,0,0-.24951.99707l.23486.41406-.40234.25488a.73263.73263,0,0,0-.24951.998l.23486.41406-.40234.25488A.75.75,0,0,0,5.611,12.334Zm-.00049-.001h0Z"/></svg>