<svg xmlns="http://www.w3.org/2000/svg" viewBox="0 0 16.10999 21.17456"><defs><style>.a{fill:#424242;}</style></defs><title>user</title><path class="a" d="M8.14661,1l.0686.00031c1.76038.0163,2.354.62842,2.64746,1.0874a5.81719,5.81719,0,0,1,.57642,3.12042c-.021,2.28687-1.49121,4.14734-3.30115,4.14728A2.91669,2.91669,0,0,1,5.90637,8.18256a4.74979,4.74979,0,0,1-.99255-3.03485C4.9425,2.04663,5.7583,1,8.14661,1m0-1C4.57874,0,3.94006,2.29932,3.91382,5.13843c-.02649,2.85944,1.8606,5.19513,4.21484,5.21692l.0332.00018c2.33887,0,4.251-2.29218,4.27722-5.13818.02649-2.8595-.57861-5.18335-4.2146-5.217L8.14661,0Z"/><path class="a" d="M.00427,18.09662c-.00024,0-.00073.05927-.00012.0896.00037-.06677.00037-.0896.00012-.0896Z"/><path class="a" d="M16.10742,18.313c-.00024,0-.001.03979-.00232.15839.00171-.03064.00281-.15839.00232-.15839Z"/><path class="a" d="M5.47827,11.80273a4.282,4.282,0,0,0,2.62891.84277l.05066.00024a4.26874,4.26874,0,0,0,2.59338-.79413c3.957.82025,4.319,1.88239,4.3479,6.281.00049.0647.001.15509.009.25873-.002.024-.00293.0484-.00317.07288l-.00049.04907c-.42627.43085-2.06018,1.66125-6.8075,1.66125l-.25928-.00116c-4.99695-.04626-6.64246-1.37073-7.03516-1.78046l.00159-.201H.99646c.017-.13666.02051-.26.02295-.34851.11938-4.27075.5022-5.29791,4.45886-6.04065M5.79065,10.731C.85852,11.5741.1554,12.966.01978,17.81543c-.00854.3064-.0127.38818-.01453.38818l-.0011-.0174c-.00049.08612-.00159.24548-.00415.52332,0,0,1.16309,2.40027,8.02844,2.46381.09009.00085.18042.00122.26855.00122,6.62939,0,7.80408-2.316,7.80408-2.316.00171-.17853.00293-.30267.00391-.38708l-.00073.00653c-.00146,0-.0033-.08-.00513-.35193-.03284-4.98193-.67017-6.40735-5.64014-7.35187a2.97027,2.97027,0,0,1-2.30115.87152l-.04126-.00018A2.98482,2.98482,0,0,1,5.79065,10.731ZM16.105,18.4715h0Z"/></svg>